<svg width="800" height="450" xmlns="http://www.w3.org/2000/svg">
  <defs>
    <linearGradient id="bg" x1="0%" y1="0%" x2="100%" y2="100%">
      <stop offset="0%" style="stop-color:#0a0f0a"/>
      <stop offset="100%" style="stop-color:#111a11"/>
    </linearGradient>
  </defs>
  <rect width="800" height="450" fill="url(#bg)"/>
  <!-- Decorative element -->
  <rect x="0" y="0" width="800" height="4" fill="#3178c6"/>
  <!-- Code-like decoration -->
  <rect x="40" y="40" width="720" height="300" rx="8" fill="#162016" stroke="#1e3a1e" stroke-width="1"/>
  <!-- Terminal dots -->
  <circle cx="70" cy="60" r="6" fill="#ff5f57"/>
  <circle cx="92" cy="60" r="6" fill="#ffbd2e"/>
  <circle cx="114" cy="60" r="6" fill="#28ca42"/>
  <!-- Code lines -->
  <rect x="70" y="90" width="200" height="12" rx="2" fill="#3178c6" opacity="0.4"/>
  <rect x="70" y="115" width="350" height="12" rx="2" fill="#a3c9a3" opacity="0.2"/>
  <rect x="90" y="140" width="280" height="12" rx="2" fill="#a3c9a3" opacity="0.15"/>
  <rect x="90" y="165" width="320" height="12" rx="2" fill="#3178c6" opacity="0.3"/>
  <rect x="70" y="190" width="250" height="12" rx="2" fill="#a3c9a3" opacity="0.2"/>
  <rect x="90" y="215" width="400" height="12" rx="2" fill="#a3c9a3" opacity="0.15"/>
  <rect x="70" y="240" width="180" height="12" rx="2" fill="#3178c6" opacity="0.25"/>
  <rect x="70" y="265" width="300" height="12" rx="2" fill="#a3c9a3" opacity="0.2"/>
  <!-- Project title -->
  <text x="400" y="400" font-family="Inter, system-ui, sans-serif" font-size="24" font-weight="600" fill="#e8f5e8" text-anchor="middle">J-PDVE</text>
  <!-- Tech stack -->
  <text x="400" y="435" font-family="JetBrains Mono, monospace" font-size="14" fill="#3178c6" text-anchor="middle">TypeScript • Next.js • NestJS</text>
</svg>